<?xml version="1.0" encoding="UTF-8" standalone="no"?>
<!-- Created with Inkscape (http://www.inkscape.org/) -->

<svg
   xmlns:dc="http://purl.org/dc/elements/1.1/"
   xmlns:cc="http://creativecommons.org/ns#"
   xmlns:rdf="http://www.w3.org/1999/02/22-rdf-syntax-ns#"
   xmlns:svg="http://www.w3.org/2000/svg"
   xmlns="http://www.w3.org/2000/svg"
   xmlns:sodipodi="http://sodipodi.sourceforge.net/DTD/sodipodi-0.dtd"
   xmlns:inkscape="http://www.inkscape.org/namespaces/inkscape"
   viewBox="0 0 278 147"
   width="100%"
   height="100%"
   id="svg2"
   version="1.1"
   inkscape:version="0.48.4 r9939"
   sodipodi:docname="referenzwahl.svg">
  <defs
     id="defs4" />
  <sodipodi:namedview
     id="base"
     pagecolor="#ffffff"
     bordercolor="#666666"
     borderopacity="1.0"
     inkscape:pageopacity="0.0"
     inkscape:pageshadow="2"
     inkscape:zoom="2.9647757"
     inkscape:cx="168.96164"
     inkscape:cy="77.672321"
     inkscape:document-units="px"
     inkscape:current-layer="layer1"
     showgrid="false"
     inkscape:window-width="1440"
     inkscape:window-height="853"
     inkscape:window-x="-2"
     inkscape:window-y="-3"
     inkscape:window-maximized="1"
     fit-margin-top="0"
     fit-margin-left="0"
     fit-margin-right="0"
     fit-margin-bottom="0"
     inkscape:snap-bbox="true"
     inkscape:snap-bbox-midpoints="true"
     inkscape:snap-object-midpoints="true"
     inkscape:snap-center="true" />
  <metadata
     id="metadata7">
    <rdf:RDF>
      <cc:Work
         rdf:about="">
        <dc:format>image/svg+xml</dc:format>
        <dc:type
           rdf:resource="http://purl.org/dc/dcmitype/StillImage" />
        <dc:title></dc:title>
      </cc:Work>
    </rdf:RDF>
  </metadata>
  <g
     inkscape:label="Ebene 1"
     inkscape:groupmode="layer"
     id="layer1"
     transform="translate(-13.187009,-346.88452)">
    <rect
       style="fill:#b3b3b3;fill-opacity:1;stroke:#000000;stroke-width:2;stroke-linecap:butt;stroke-linejoin:miter;stroke-miterlimit:4;stroke-opacity:1;stroke-dasharray:none;stroke-dashoffset:0"
       id="rect2985"
       width="257.32745"
       height="28.252569"
       x="31.563793"
       y="347.88452" />
    <path
       sodipodi:type="arc"
       style="fill:#a6faff;fill-opacity:1;stroke:#000000;stroke-width:2;stroke-linecap:butt;stroke-linejoin:miter;stroke-miterlimit:4;stroke-opacity:1;stroke-dasharray:none;stroke-dashoffset:0"
       id="path3761"
       sodipodi:cx="62.995594"
       sodipodi:cy="341.84824"
       sodipodi:rx="11.071953"
       sodipodi:ry="11.071953"
       d="m 74.067547,341.84824 c 0,6.11487 -4.957082,11.07195 -11.071953,11.07195 -6.114871,0 -11.071953,-4.95708 -11.071953,-11.07195 0,-6.11487 4.957082,-11.07196 11.071953,-11.07196 6.114871,0 11.071953,4.95709 11.071953,11.07196 z"
       transform="translate(-2.7974385,20.162564)" />
    <path
       transform="translate(78.94245,20.162564)"
       sodipodi:type="arc"
       style="fill:#ffc200;fill-opacity:1;stroke:#000000;stroke-width:2;stroke-linecap:butt;stroke-linejoin:miter;stroke-miterlimit:4;stroke-opacity:1;stroke-dasharray:none;stroke-dashoffset:0"
       id="path3761-4"
       sodipodi:cx="62.995594"
       sodipodi:cy="341.84824"
       sodipodi:rx="11.071953"
       sodipodi:ry="11.071953"
       d="m 74.067547,341.84824 c 0,6.11487 -4.957082,11.07195 -11.071953,11.07195 -6.114871,0 -11.071953,-4.95708 -11.071953,-11.07195 0,-6.11487 4.957082,-11.07196 11.071953,-11.07196 6.114871,0 11.071953,4.95709 11.071953,11.07196 z" />
    <path
       transform="translate(195.35234,20.162564)"
       sodipodi:type="arc"
       style="fill:#003dff;fill-opacity:1;stroke:#000000;stroke-width:2;stroke-linecap:butt;stroke-linejoin:miter;stroke-miterlimit:4;stroke-opacity:1;stroke-dasharray:none;stroke-dashoffset:0"
       id="path3761-1"
       sodipodi:cx="62.995594"
       sodipodi:cy="341.84824"
       sodipodi:rx="11.071953"
       sodipodi:ry="11.071953"
       d="m 74.067547,341.84824 c 0,6.11487 -4.957082,11.07195 -11.071953,11.07195 -6.114871,0 -11.071953,-4.95708 -11.071953,-11.07195 0,-6.11487 4.957082,-11.07196 11.071953,-11.07196 6.114871,0 11.071953,4.95709 11.071953,11.07196 z" />
    <text
       xml:space="preserve"
       style="font-size:13px;font-style:normal;font-weight:normal;line-height:125%;letter-spacing:0px;word-spacing:0px;fill:#000000;fill-opacity:1;stroke:none;font-family:Bitstream Vera Sans"
       x="12.074582"
       y="366.74933"
       id="text3884"
       sodipodi:linespacing="125%"><tspan
         sodipodi:role="line"
         id="tspan3886"
         x="12.074582"
         y="366.74933">1</tspan></text>
    <rect
       style="fill:#b3b3b3;fill-opacity:1;stroke:#000000;stroke-width:2;stroke-linecap:butt;stroke-linejoin:miter;stroke-miterlimit:4;stroke-opacity:1;stroke-dasharray:none;stroke-dashoffset:0"
       id="rect2985-0"
       width="257.32745"
       height="28.252569"
       x="31.657421"
       y="386.59686" />
    <path
       sodipodi:type="arc"
       style="fill:#a6faff;fill-opacity:1;stroke:#000000;stroke-width:2;stroke-linecap:butt;stroke-linejoin:miter;stroke-miterlimit:4;stroke-opacity:1;stroke-dasharray:none;stroke-dashoffset:0"
       id="path3761-45"
       sodipodi:cx="62.995594"
       sodipodi:cy="341.84824"
       sodipodi:rx="11.071953"
       sodipodi:ry="11.071953"
       d="m 74.067547,341.84824 c 0,6.11487 -4.957082,11.07195 -11.071953,11.07195 -6.114871,0 -11.071953,-4.95708 -11.071953,-11.07195 0,-6.11487 4.957082,-11.07196 11.071953,-11.07196 6.114871,0 11.071953,4.95709 11.071953,11.07196 z"
       transform="translate(-2.7038106,58.874911)" />
    <path
       transform="translate(63.764236,58.874911)"
       sodipodi:type="arc"
       style="fill:#ffc200;fill-opacity:1;stroke:#000000;stroke-width:2;stroke-linecap:butt;stroke-linejoin:miter;stroke-miterlimit:4;stroke-opacity:1;stroke-dasharray:none;stroke-dashoffset:0"
       id="path3761-4-3"
       sodipodi:cx="62.995594"
       sodipodi:cy="341.84824"
       sodipodi:rx="11.071953"
       sodipodi:ry="11.071953"
       d="m 74.067547,341.84824 c 0,6.11487 -4.957082,11.07195 -11.071953,11.07195 -6.114871,0 -11.071953,-4.95708 -11.071953,-11.07195 0,-6.11487 4.957082,-11.07196 11.071953,-11.07196 6.114871,0 11.071953,4.95709 11.071953,11.07196 z" />
    <path
       transform="translate(195.44597,58.874911)"
       sodipodi:type="arc"
       style="fill:#003dff;fill-opacity:1;stroke:#000000;stroke-width:2;stroke-linecap:butt;stroke-linejoin:miter;stroke-miterlimit:4;stroke-opacity:1;stroke-dasharray:none;stroke-dashoffset:0"
       id="path3761-1-6"
       sodipodi:cx="62.995594"
       sodipodi:cy="341.84824"
       sodipodi:rx="11.071953"
       sodipodi:ry="11.071953"
       d="m 74.067547,341.84824 c 0,6.11487 -4.957082,11.07195 -11.071953,11.07195 -6.114871,0 -11.071953,-4.95708 -11.071953,-11.07195 0,-6.11487 4.957082,-11.07196 11.071953,-11.07196 6.114871,0 11.071953,4.95709 11.071953,11.07196 z" />
    <text
       xml:space="preserve"
       style="font-size:13px;font-style:normal;font-weight:normal;line-height:125%;letter-spacing:0px;word-spacing:0px;fill:#000000;fill-opacity:1;stroke:none;font-family:Bitstream Vera Sans"
       x="12.457028"
       y="405.54736"
       id="text3884-5"
       sodipodi:linespacing="125%"><tspan
         sodipodi:role="line"
         id="tspan3886-0"
         x="12.457028"
         y="405.54736">2</tspan></text>
    <rect
       style="fill:#b3b3b3;fill-opacity:1;stroke:#000000;stroke-width:2;stroke-linecap:butt;stroke-linejoin:miter;stroke-miterlimit:4;stroke-opacity:1;stroke-dasharray:none;stroke-dashoffset:0"
       id="rect2985-6"
       width="257.32745"
       height="28.252569"
       x="31.712963"
       y="425.3092" />
    <path
       sodipodi:type="arc"
       style="fill:#a6faff;fill-opacity:1;stroke:#000000;stroke-width:2;stroke-linecap:butt;stroke-linejoin:miter;stroke-miterlimit:4;stroke-opacity:1;stroke-dasharray:none;stroke-dashoffset:0"
       id="path3761-6"
       sodipodi:cx="62.995594"
       sodipodi:cy="341.84824"
       sodipodi:rx="11.071953"
       sodipodi:ry="11.071953"
       d="m 74.067547,341.84824 c 0,6.11487 -4.957082,11.07195 -11.071953,11.07195 -6.114871,0 -11.071953,-4.95708 -11.071953,-11.07195 0,-6.11487 4.957082,-11.07196 11.071953,-11.07196 6.114871,0 11.071953,4.95709 11.071953,11.07196 z"
       transform="translate(-2.6482686,97.587253)" />
    <path
       transform="translate(78.94245,97.587253)"
       sodipodi:type="arc"
       style="fill:#ffc200;fill-opacity:1;stroke:#000000;stroke-width:2;stroke-linecap:butt;stroke-linejoin:miter;stroke-miterlimit:4;stroke-opacity:1;stroke-dasharray:none;stroke-dashoffset:0"
       id="path3761-4-7"
       sodipodi:cx="62.995594"
       sodipodi:cy="341.84824"
       sodipodi:rx="11.071953"
       sodipodi:ry="11.071953"
       d="m 74.067547,341.84824 c 0,6.11487 -4.957082,11.07195 -11.071953,11.07195 -6.114871,0 -11.071953,-4.95708 -11.071953,-11.07195 0,-6.11487 4.957082,-11.07196 11.071953,-11.07196 6.114871,0 11.071953,4.95709 11.071953,11.07196 z" />
    <path
       transform="translate(195.50151,97.587253)"
       sodipodi:type="arc"
       style="fill:#003dff;fill-opacity:1;stroke:#000000;stroke-width:2;stroke-linecap:butt;stroke-linejoin:miter;stroke-miterlimit:4;stroke-opacity:1;stroke-dasharray:none;stroke-dashoffset:0"
       id="path3761-1-2"
       sodipodi:cx="62.995594"
       sodipodi:cy="341.84824"
       sodipodi:rx="11.071953"
       sodipodi:ry="11.071953"
       d="m 74.067547,341.84824 c 0,6.11487 -4.957082,11.07195 -11.071953,11.07195 -6.114871,0 -11.071953,-4.95708 -11.071953,-11.07195 0,-6.11487 4.957082,-11.07196 11.071953,-11.07196 6.114871,0 11.071953,4.95709 11.071953,11.07196 z" />
    <text
       xml:space="preserve"
       style="font-size:13px;font-style:normal;font-weight:normal;line-height:125%;letter-spacing:0px;word-spacing:0px;fill:#000000;fill-opacity:1;stroke:none;font-family:Bitstream Vera Sans"
       x="12.3634"
       y="444.16766"
       id="text3884-7"
       sodipodi:linespacing="125%"><tspan
         sodipodi:role="line"
         id="tspan3886-8"
         x="12.3634"
         y="444.16766">3</tspan></text>
    <rect
       style="fill:#b3b3b3;fill-opacity:1;stroke:#000000;stroke-width:2;stroke-linecap:butt;stroke-linejoin:miter;stroke-miterlimit:4;stroke-opacity:1;stroke-dasharray:none;stroke-dashoffset:0"
       id="rect2985-1"
       width="257.32745"
       height="28.252569"
       x="31.879589"
       y="464.02155" />
    <path
       sodipodi:type="arc"
       style="fill:#a6faff;fill-opacity:1;stroke:#000000;stroke-width:2;stroke-linecap:butt;stroke-linejoin:miter;stroke-miterlimit:4;stroke-opacity:1;stroke-dasharray:none;stroke-dashoffset:0"
       id="path3761-7"
       sodipodi:cx="62.995594"
       sodipodi:cy="341.84824"
       sodipodi:rx="11.071953"
       sodipodi:ry="11.071953"
       d="m 74.067547,341.84824 c 0,6.11487 -4.957082,11.07195 -11.071953,11.07195 -6.114871,0 -11.071953,-4.95708 -11.071953,-11.07195 0,-6.11487 4.957082,-11.07196 11.071953,-11.07196 6.114871,0 11.071953,4.95709 11.071953,11.07196 z"
       transform="translate(-2.4816426,136.29959)" />
    <path
       transform="translate(91.085021,136.29959)"
       sodipodi:type="arc"
       style="fill:#ffc200;fill-opacity:1;stroke:#000000;stroke-width:2;stroke-linecap:butt;stroke-linejoin:miter;stroke-miterlimit:4;stroke-opacity:1;stroke-dasharray:none;stroke-dashoffset:0"
       id="path3761-4-4"
       sodipodi:cx="62.995594"
       sodipodi:cy="341.84824"
       sodipodi:rx="11.071953"
       sodipodi:ry="11.071953"
       d="m 74.067547,341.84824 c 0,6.11487 -4.957082,11.07195 -11.071953,11.07195 -6.114871,0 -11.071953,-4.95708 -11.071953,-11.07195 0,-6.11487 4.957082,-11.07196 11.071953,-11.07196 6.114871,0 11.071953,4.95709 11.071953,11.07196 z" />
    <path
       transform="translate(177.34215,136.29959)"
       sodipodi:type="arc"
       style="fill:#003dff;fill-opacity:1;stroke:#000000;stroke-width:2;stroke-linecap:butt;stroke-linejoin:miter;stroke-miterlimit:4;stroke-opacity:1;stroke-dasharray:none;stroke-dashoffset:0"
       id="path3761-1-66"
       sodipodi:cx="62.995594"
       sodipodi:cy="341.84824"
       sodipodi:rx="11.071953"
       sodipodi:ry="11.071953"
       d="m 74.067547,341.84824 c 0,6.11487 -4.957082,11.07195 -11.071953,11.07195 -6.114871,0 -11.071953,-4.95708 -11.071953,-11.07195 0,-6.11487 4.957082,-11.07196 11.071953,-11.07196 6.114871,0 11.071953,4.95709 11.071953,11.07196 z" />
    <text
       xml:space="preserve"
       style="font-size:13px;font-style:normal;font-weight:normal;line-height:125%;letter-spacing:0px;word-spacing:0px;fill:#000000;fill-opacity:1;stroke:none;font-family:Bitstream Vera Sans"
       x="12.552243"
       y="482.88635"
       id="text3884-1"
       sodipodi:linespacing="125%"><tspan
         sodipodi:role="line"
         id="tspan3886-5"
         x="12.552243"
         y="482.88635">4</tspan></text>
    <path
       style="fill:none;stroke:#000000;stroke-width:1px;stroke-linecap:butt;stroke-linejoin:miter;stroke-opacity:1"
       d="m 47.011146,32.71203 0.09363,38.712347 0.05554,38.712343 0.166626,38.71234"
       id="path4168"
       inkscape:connector-curvature="0"
       transform="translate(13.187009,329.29877)" />
    <path
       style="fill:none;stroke:#000000;stroke-width:1px;stroke-linecap:butt;stroke-linejoin:miter;stroke-opacity:1"
       d="m 245.16093,32.71203 0.0936,38.712347 0.0555,38.712343 -18.15936,38.71234"
       id="path4174"
       inkscape:connector-curvature="0"
       transform="translate(13.187009,329.29877)" />
    <path
       style="fill:none;stroke:#000000;stroke-width:1px;stroke-linecap:butt;stroke-linejoin:miter;stroke-opacity:1"
       d="m 128.75104,15.12628 -15.17822,38.712347 15.17822,38.712342 12.14257,38.712341"
       id="path3127"
       inkscape:connector-curvature="0"
       transform="translate(13.187009,346.88452)" />
  </g>
</svg>
